<?xml version="1.0" standalone="no"?>
<!DOCTYPE svg PUBLIC "-//W3C//DTD SVG 20010904//EN"
 "http://www.w3.org/TR/2001/REC-SVG-20010904/DTD/svg10.dtd">
<svg version="1.0" xmlns="http://www.w3.org/2000/svg"
 width="787.000000pt" height="787.000000pt" viewBox="0 0 787.000000 787.000000"
 preserveAspectRatio="xMidYMid meet">
<metadata>
Created by potrace 1.14, written by Peter Selinger 2001-2017
</metadata>
<g transform="translate(0.000000,787.000000) scale(0.100000,-0.100000)"
fill="#000000" stroke="none">
<path d="M3665 7314 c-438 -43 -809 -143 -1173 -314 -361 -171 -734 -442
-1022 -745 -482 -505 -800 -1186 -897 -1920 -21 -164 -24 -600 -5 -755 33
-260 76 -463 147 -680 245 -747 699 -1348 1350 -1785 433 -290 901 -466 1445
-540 158 -22 546 -31 707 -16 632 58 1235 284 1725 648 491 365 860 830 1103
1388 187 430 275 858 275 1345 0 479 -79 872 -262 1305 -288 682 -746 1213
-1373 1590 -392 236 -804 384 -1270 456 -114 17 -194 22 -425 24 -157 2 -303
1 -325 -1z m730 -182 c732 -115 1359 -441 1870 -973 466 -485 761 -1087 867
-1764 25 -164 36 -575 19 -751 -77 -799 -445 -1537 -1036 -2076 -498 -455
-1087 -735 -1760 -835 -94 -14 -184 -18 -415 -18 -259 0 -314 3 -450 24 -687
104 -1300 407 -1789 885 -199 196 -340 365 -474 572 -459 709 -617 1544 -451
2378 242 1212 1211 2213 2419 2501 298 71 428 84 785 80 226 -2 312 -7 415
-23z"/>
<path d="M3182 6554 c-15 -10 -22 -24 -20 -37 2 -18 12 -23 49 -28 58 -9 104
-32 125 -65 13 -19 15 -37 10 -82 -12 -106 -12 -106 6 -110 24 -5 95 63 109
105 25 77 -18 165 -104 208 -60 30 -140 34 -175 9z"/>
<path d="M2554 6446 c-18 -14 -17 -16 28 -60 71 -68 75 -128 16 -235 -34 -62
-28 -82 21 -61 72 29 117 116 108 205 -13 122 -103 202 -173 151z"/>
<path d="M2820 6048 c-55 -38 -51 -52 25 -73 165 -44 211 -139 144 -295 -27
-63 -29 -75 -16 -87 12 -13 19 -13 49 0 80 34 143 115 154 201 5 35 1 56 -20
102 -50 110 -125 164 -236 171 -56 4 -70 2 -100 -19z"/>
<path d="M2204 5919 c-18 -20 -18 -21 0 -31 42 -23 96 -81 107 -115 15 -47 4
-106 -31 -169 -35 -61 -38 -84 -10 -84 61 0 133 73 150 153 28 125 -60 267
-166 267 -19 0 -38 -8 -50 -21z"/>
<path d="M1653 5599 c-13 -5 -23 -15 -23 -24 0 -9 10 -30 23 -46 18 -26 22
-43 22 -109 0 -70 -4 -84 -37 -149 -51 -96 -49 -118 5 -90 73 38 118 128 118
241 0 70 -4 97 -24 136 -16 32 -56 52 -84 41z"/>
<path d="M1220 5485 c-92 -152 -228 -479 -290 -692 -98 -344 -129 -716 -95
-1148 14 -185 34 -299 85 -490 185 -697 598 -1316 1160 -1739 202 -152 309
-220 481 -306 226 -114 450 -188 744 -249 251 -51 433 -61 480 -27 20 15 33
68 41 176 11 161 -22 260 -105 316 -61 40 -219 104 -298 122 l-73 16 0 35 c0
80 -39 178 -112 282 -30 43 -56 66 -115 99 -88 51 -220 106 -275 115 -47 8
-57 22 -97 137 -40 116 -48 130 -125 226 -84 103 -112 124 -219 163 -68 25
-99 43 -148 87 -115 105 -139 167 -146 377 l-5 151 61 115 61 116 0 89 c-1
173 -51 317 -142 406 -59 57 -116 77 -240 85 -49 3 -88 9 -88 12 0 3 11 49 24
101 26 107 33 246 16 325 -16 74 -97 154 -213 211 -66 33 -64 27 -71 179 -8
141 -24 217 -79 357 -35 88 -46 132 -51 197 -4 49 -15 104 -27 130 -22 50 -65
111 -79 111 -5 0 -32 -38 -60 -85z m120 -665 c85 -91 22 -340 -86 -340 -88 0
-121 160 -58 287 41 84 96 104 144 53z m156 -419 c20 -12 42 -41 60 -78 26
-53 28 -68 29 -173 0 -127 -15 -179 -70 -232 -35 -35 -65 -35 -104 -3 -48 41
-74 123 -75 235 -1 119 16 181 64 231 42 44 53 46 96 20z m-352 -266 c45 -41
66 -101 66 -185 0 -198 -144 -272 -221 -114 -26 55 -31 167 -11 226 32 91 109
125 166 73z m745 -319 c104 -54 178 -248 151 -397 -14 -75 -28 -104 -69 -143
-62 -59 -158 -32 -221 63 -54 81 -73 146 -74 251 0 108 22 170 76 215 34 29
93 33 137 11z m-459 -223 c102 -103 121 -311 37 -401 -67 -73 -162 -30 -221
98 -51 112 -43 250 18 315 28 29 40 35 76 35 38 0 48 -6 90 -47z m359 -567
c74 -39 141 -158 149 -266 10 -143 -59 -220 -161 -181 -67 26 -140 142 -159
252 -12 76 0 133 38 179 21 24 34 30 65 30 22 0 53 -7 68 -14z m-448 -79 c19
-12 47 -47 64 -77 26 -48 30 -65 30 -137 0 -71 -3 -85 -22 -104 -28 -29 -66
-19 -110 29 -78 85 -98 252 -36 300 23 17 35 15 74 -11z m387 -521 c92 -49
174 -213 153 -309 -21 -92 -86 -101 -165 -22 -62 62 -98 139 -103 223 -4 58
-2 71 17 95 24 30 56 35 98 13z m578 -56 c54 -27 139 -117 165 -176 11 -25 23
-69 25 -97 9 -89 -46 -147 -125 -132 -179 34 -326 297 -224 400 33 32 98 34
159 5z m-79 -501 c92 -44 173 -162 173 -251 0 -41 -34 -78 -72 -78 -70 0 -188
93 -227 180 -25 55 -27 127 -4 152 22 24 76 23 130 -3z m683 -87 c98 -46 177
-146 188 -238 9 -79 -42 -120 -138 -111 -68 6 -126 34 -187 90 -84 78 -121
174 -89 235 18 35 28 42 70 53 44 10 93 1 156 -29z m-168 -393 c72 -24 130
-62 181 -118 132 -146 -125 -144 -275 2 -59 57 -70 93 -38 119 29 23 56 23
132 -3z m730 -87 c63 -28 135 -96 149 -141 23 -79 -26 -126 -131 -125 -139 1
-270 99 -270 201 0 42 16 64 60 82 37 16 139 7 192 -17z"/>
<path d="M3442 5483 c-7 -3 -17 -13 -22 -23 -8 -15 -1 -28 39 -69 87 -90 123
-202 104 -328 -6 -37 -8 -74 -6 -80 12 -33 63 -1 93 57 18 35 16 147 -5 212
-44 141 -143 255 -203 231z"/>
<path d="M2474 5420 c-18 -6 -47 -27 -65 -47 l-33 -38 50 -13 c126 -33 187
-71 221 -136 29 -54 21 -139 -21 -235 -42 -97 -41 -126 5 -117 38 7 108 56
144 98 70 83 90 211 46 301 -34 70 -127 163 -176 176 -61 17 -136 21 -171 11z"/>
<path d="M1754 5167 l-27 -24 60 -41 c121 -82 173 -170 159 -270 -4 -29 -24
-77 -51 -124 -26 -44 -42 -84 -39 -93 13 -33 107 -7 168 46 97 86 112 215 41
355 -21 41 -54 89 -73 106 -80 69 -186 89 -238 45z"/>
<path d="M3030 4733 c-20 -7 -59 -44 -71 -65 -8 -15 1 -20 59 -38 86 -25 130
-54 160 -105 32 -55 26 -152 -16 -251 -45 -108 -18 -134 71 -68 116 85 160
239 103 361 -33 70 -110 148 -161 162 -42 11 -119 13 -145 4z"/>
<path d="M2157 4708 c-42 -11 -121 -80 -115 -99 2 -6 41 -22 87 -35 100 -29
136 -47 179 -88 43 -40 62 -76 71 -138 11 -67 -1 -123 -50 -234 -62 -142 -42
-177 66 -115 186 107 258 317 170 496 -38 79 -115 158 -182 188 -67 30 -169
41 -226 25z"/>
<path d="M3595 4138 c-45 -16 -78 -42 -97 -76 l-18 -30 70 -17 c190 -47 280
-134 280 -275 0 -59 -14 -106 -62 -212 -31 -71 -37 -91 -28 -108 15 -28 38
-25 106 16 72 43 106 75 144 134 70 111 78 249 21 358 -47 87 -134 174 -196
196 -63 22 -180 29 -220 14z"/>
<path d="M2689 3951 c-43 -24 -94 -80 -82 -92 4 -4 37 -15 73 -24 178 -46 256
-116 267 -243 6 -68 -10 -131 -62 -246 -37 -81 -38 -110 -6 -119 56 -14 211
116 257 215 24 54 28 76 29 153 0 78 -4 97 -27 146 -40 81 -126 171 -190 199
-75 33 -208 38 -259 11z"/>
<path d="M6535 3780 c-18 -20 -18 -21 13 -53 17 -17 36 -45 41 -60 18 -46 13
-166 -9 -227 -34 -96 -22 -119 34 -69 90 79 99 317 16 401 -33 33 -70 36 -95
8z"/>
<path d="M5996 3611 c-15 -17 -15 -19 0 -32 29 -24 62 -84 79 -144 21 -69 15
-130 -19 -207 -13 -29 -21 -59 -19 -65 6 -17 38 -16 72 2 99 51 90 313 -14
422 -45 47 -72 53 -99 24z"/>
<path d="M5184 3494 l-26 -25 60 -57 c49 -46 63 -68 76 -111 20 -67 20 -156 1
-234 -7 -33 -11 -65 -8 -73 14 -37 79 9 106 76 40 96 29 212 -30 330 -30 59
-46 79 -78 97 -52 29 -70 29 -101 -3z"/>
<path d="M4184 3442 c-39 -19 -97 -79 -89 -92 2 -4 35 -15 72 -25 101 -27 147
-50 197 -95 93 -85 100 -198 23 -368 -27 -60 -43 -109 -40 -121 9 -35 40 -35
100 1 83 49 140 110 176 186 28 59 32 77 32 152 0 74 -4 93 -31 150 -41 86
-111 162 -181 196 -75 37 -198 44 -259 16z"/>
<path d="M6737 3388 c-24 -13 -21 -27 9 -59 34 -35 45 -89 35 -169 -5 -36 -7
-68 -4 -72 7 -13 29 2 48 35 57 96 -13 307 -88 265z"/>
<path d="M3315 3336 c-35 -10 -60 -26 -89 -56 -45 -49 -45 -49 53 -75 144 -37
229 -103 251 -194 19 -80 9 -143 -43 -265 -50 -116 -50 -146 -3 -146 31 0 132
67 178 118 98 109 124 266 65 395 -36 79 -136 182 -200 205 -73 27 -152 34
-212 18z"/>
<path d="M6283 3204 c-17 -26 -17 -27 20 -57 21 -16 45 -43 53 -60 26 -49 33
-136 19 -218 -14 -79 -7 -102 22 -83 81 51 94 225 27 361 -39 81 -107 108
-141 57z"/>
<path d="M2394 3200 c-44 -22 -91 -77 -78 -90 5 -4 38 -15 74 -24 199 -50 293
-166 262 -322 -7 -31 -30 -98 -53 -149 -57 -132 -42 -167 51 -117 152 81 246
244 225 391 -16 121 -132 271 -238 310 -78 28 -186 29 -243 1z"/>
<path d="M5625 3024 c-31 -16 -64 -51 -65 -69 0 -6 29 -18 64 -29 45 -12 74
-28 97 -52 33 -34 34 -38 34 -112 0 -67 -5 -90 -39 -170 -35 -85 -37 -95 -23
-109 14 -14 19 -14 50 6 125 77 197 259 153 387 -37 108 -103 163 -196 164
-25 0 -58 -7 -75 -16z"/>
<path d="M4777 2836 c-50 -18 -89 -55 -85 -80 2 -15 20 -25 73 -41 93 -29 125
-46 168 -94 63 -70 64 -183 3 -315 -39 -85 -45 -123 -20 -133 46 -17 190 100
234 192 35 71 39 180 11 256 -29 75 -114 169 -180 198 -66 28 -155 36 -204 17z"/>
<path d="M6492 2778 c-18 -18 -15 -29 14 -59 33 -35 45 -96 33 -172 -11 -65
-5 -85 18 -66 28 24 43 68 43 132 0 115 -63 210 -108 165z"/>
<path d="M3957 2706 c-66 -18 -114 -65 -101 -99 3 -8 25 -20 50 -26 265 -67
335 -211 225 -464 -23 -54 -41 -108 -39 -120 6 -40 48 -33 130 22 127 85 183
193 177 338 -8 170 -132 317 -297 352 -65 14 -84 13 -145 -3z"/>
<path d="M2992 2589 c-39 -20 -82 -65 -82 -87 0 -5 38 -19 84 -31 104 -28 181
-73 221 -129 26 -38 30 -54 33 -122 4 -71 1 -85 -33 -166 -57 -138 -62 -161
-42 -181 16 -16 19 -16 59 4 109 55 194 148 223 246 8 28 15 83 15 122 0 96
-38 175 -129 266 -56 55 -75 68 -127 82 -84 24 -169 22 -222 -4z"/>
<path d="M6064 2546 c-26 -12 -74 -63 -74 -79 0 -3 17 -3 38 0 85 11 100 -63
38 -193 -50 -105 -22 -124 54 -38 95 109 108 282 24 314 -32 13 -42 12 -80 -4z"/>
<path d="M5291 2274 c-17 -14 -31 -31 -31 -38 0 -7 31 -22 68 -34 91 -29 124
-63 130 -135 3 -43 -1 -67 -23 -118 -50 -118 -30 -149 55 -86 101 75 136 219
78 317 -52 89 -102 120 -193 120 -43 0 -60 -5 -84 -26z"/>
<path d="M6240 2179 c-92 -55 -124 -117 -39 -73 68 34 82 22 50 -42 -31 -65
-14 -79 33 -28 39 43 66 92 66 121 0 46 -53 56 -110 22z"/>
<path d="M4525 2063 c-30 -8 -45 -23 -45 -48 0 -18 11 -26 63 -45 147 -53 189
-136 132 -258 -48 -103 -24 -129 65 -72 109 70 137 179 75 287 -60 102 -186
161 -290 136z"/>
<path d="M3585 2006 c-46 -18 -108 -79 -103 -104 3 -14 19 -18 83 -23 97 -8
155 -30 194 -75 52 -59 62 -127 35 -244 -20 -89 -16 -124 13 -128 30 -4 111
76 143 143 33 67 38 164 15 236 -21 62 -96 144 -166 179 -56 29 -158 36 -214
16z"/>
<path d="M5678 1885 c-49 -18 -88 -45 -88 -60 0 -9 16 -11 64 -8 73 6 111 -1
119 -21 3 -8 -10 -39 -30 -71 -44 -71 -35 -89 29 -51 86 50 136 122 119 169
-19 51 -130 72 -213 42z"/>
<path d="M4946 1676 c-47 -18 -58 -33 -43 -58 9 -14 24 -18 62 -18 61 0 134
-34 153 -70 8 -17 10 -47 6 -97 -7 -86 3 -93 61 -42 97 85 86 186 -27 256 -67
41 -148 52 -212 29z"/>
<path d="M4113 1545 c-53 -24 -93 -71 -93 -109 0 -16 5 -17 33 -12 73 15 144
18 184 7 87 -24 142 -101 143 -201 0 -69 8 -97 27 -105 23 -8 49 20 85 92 36
74 36 130 -2 207 -58 120 -249 181 -377 121z"/>
<path d="M5305 1403 c-46 -11 -84 -35 -78 -49 4 -11 24 -14 85 -13 96 2 109
-7 85 -57 -16 -33 -16 -54 2 -54 4 0 28 14 53 30 76 51 81 107 12 136 -32 13
-117 17 -159 7z"/>
<path d="M4629 1258 c-62 -32 -77 -50 -61 -75 6 -9 17 -10 45 -2 20 5 63 9 95
7 72 -4 87 -25 70 -101 -7 -34 -7 -52 0 -59 28 -28 122 87 122 150 0 47 -14
69 -60 92 -61 31 -133 27 -211 -12z"/>
<path d="M3940 1077 c-25 -7 -44 -15 -42 -19 1 -5 2 -15 2 -23 0 -12 14 -15
68 -15 77 0 134 -13 153 -36 10 -13 6 -22 -29 -57 -48 -49 -53 -67 -17 -67 82
0 209 86 203 138 -3 30 -51 66 -107 82 -48 13 -175 11 -231 -3z"/>
</g>
</svg>
