<?xml version="1.0" standalone="no"?>
<!DOCTYPE svg PUBLIC "-//W3C//DTD SVG 20010904//EN"
 "http://www.w3.org/TR/2001/REC-SVG-20010904/DTD/svg10.dtd">
<svg version="1.0" xmlns="http://www.w3.org/2000/svg"
 width="674.000000pt" height="674.000000pt" viewBox="0 0 674.000000 674.000000"
 preserveAspectRatio="xMidYMid meet">
<metadata>
Created by potrace 1.14, written by Peter Selinger 2001-2017
</metadata>
<g transform="translate(0.000000,674.000000) scale(0.100000,-0.100000)"
fill="#000000" stroke="none">
<path d="M3325 6070 c-61 -14 -147 -22 -265 -26 -244 -9 -349 -35 -745 -188
-267 -104 -429 -198 -635 -371 -250 -210 -435 -413 -594 -655 -27 -41 -57 -86
-66 -100 -35 -52 -151 -299 -189 -402 -50 -135 -104 -314 -116 -388 -3 -19 -8
-42 -10 -50 -6 -20 -13 -65 -21 -120 -3 -25 -10 -67 -14 -95 -7 -45 -11 -155
-13 -330 -1 -77 10 -243 19 -290 3 -16 7 -43 9 -60 1 -16 8 -57 13 -90 6 -33
13 -73 15 -90 16 -109 96 -349 172 -520 109 -242 197 -398 308 -545 88 -116
371 -404 487 -496 201 -159 475 -315 743 -423 115 -47 413 -128 532 -146 22
-3 65 -9 95 -14 146 -22 499 -20 705 5 145 17 572 132 665 179 14 7 68 33 120
58 266 128 411 225 670 446 84 73 214 205 275 282 171 213 245 342 396 687 87
197 145 366 168 487 6 28 12 59 14 70 3 11 8 56 12 100 4 44 9 96 12 115 9 78
10 442 1 487 -9 50 -13 80 -23 203 -3 41 -8 95 -11 120 -9 78 -53 230 -86 299
-18 36 -33 73 -34 81 -9 56 -40 129 -125 302 -99 198 -157 292 -278 448 -36
47 -73 94 -81 105 -28 36 -114 121 -175 171 -67 55 -118 99 -149 129 -97 93
-184 158 -271 206 -33 17 -94 54 -135 81 -92 61 -212 119 -348 169 -120 45
-418 134 -477 143 -22 4 -83 13 -135 21 -165 26 -331 28 -435 5z"/>
</g>
</svg>
